<svg width="30" height="30" viewBox="0 0 30 30" fill="none" xmlns="http://www.w3.org/2000/svg">
<path fill-rule="evenodd" clip-rule="evenodd" d="M14.5195 0C17.2238 0.0308594 19.6669 0.695494 21.8487 1.9939C24.0045 3.26639 25.7978 5.07068 27.0572 7.23421C28.3477 9.42919 29.0083 11.8871 29.0391 14.6078C28.9624 18.3305 27.7883 21.51 25.5166 24.1463C23.2449 26.7827 20.3354 28.4137 17.3236 29.039V18.6018H20.1711L20.815 14.5003H16.5033V11.8138C16.4793 11.2569 16.6555 10.7098 16.9998 10.2715C17.3446 9.83191 17.9518 9.60088 18.8214 9.57838H21.4251V5.98551C21.3878 5.97349 21.0333 5.92596 20.3617 5.84292C19.6 5.7538 18.834 5.70619 18.0671 5.70032C16.3315 5.70833 14.9588 6.19793 13.9491 7.16911C12.9394 8.14003 12.4236 9.54473 12.4017 11.3832V14.5003H9.12048V18.6018H12.4017V29.039C8.70359 28.4137 5.79411 26.7827 3.52243 24.1463C1.25075 21.51 0.0766523 18.3305 0 14.6078C0.030668 11.8869 0.691285 9.42906 1.98185 7.23421C3.24119 5.07068 5.03452 3.2664 7.19035 1.9939C9.37212 0.695744 11.8152 0.0311094 14.5195 0Z" fill="white"/>
</svg>
